<?xml version="1.0" encoding="UTF-8"?>
<!DOCTYPE svg PUBLIC "-//W3C//DTD SVG 1.1//EN" "http://www.w3.org/Graphics/SVG/1.1/DTD/svg11.dtd">
<svg version="1.1" xmlns="http://www.w3.org/2000/svg" xmlns:xlink="http://www.w3.org/1999/xlink" x="0" y="0" width="1528" height="1634" viewBox="0, 0, 1528, 1634">
  <defs>
    <clipPath id="Clip_1">
      <path d="M0.06,0.49 L1527.91,0.49 L1527.91,1634 L0.06,1634 z"/>
    </clipPath>
  </defs>
  <g id="Layer_1">
    <g clip-path="url(#Clip_1)">
      <path d="M464.51,1394.53 C464.488,1393.83 464.446,1393.14 464.602,1392.49 C464.614,1393.15 464.526,1393.83 464.51,1394.53 z M306.84,868.444 C306.581,869.434 306.625,871.061 304.974,870.838 C303.702,870.666 302.055,870.357 301.374,869.484 C300.57,868.455 302.087,867.497 302.863,866.785 C304.536,865.253 305.577,863.035 308.149,861.922 C307.69,864.283 307.376,866.392 306.84,868.444 z M1434.11,574.817 C1433.41,528.456 1427.16,482.977 1413.01,438.727 C1397.27,389.459 1372.89,345.08 1335.44,309.023 C1273.63,249.513 1199.11,218.85 1113.6,215.149 C1068.42,213.194 1024.36,220.25 981.521,234.648 C964.548,240.352 948.705,248.727 932.386,255.947 C872.339,282.513 824.027,322.247 788.335,377.345 C787.676,378.363 787.392,379.96 785.581,379.68 C785.541,379.369 785.414,379.06 785.482,378.803 C790.327,360.544 793.248,341.996 792.755,323.08 C791.988,293.681 787.065,264.88 779.945,236.378 C765.319,177.836 737.776,126.671 693.436,85.269 C634.059,29.827 563.474,1.665 482.316,0.518 C443.294,-0.033 405.597,7.435 369.387,22.086 C352.868,28.77 337.055,36.866 322.079,46.538 C319.612,48.13 317.584,49.816 314.273,50.153 C278.841,53.763 245.083,63.278 213.57,80.052 C159.719,108.715 121.975,152.557 95.144,206.548 C92.365,212.141 94.099,216.784 99.969,219.797 C105.785,222.781 112.075,223.057 118.466,222.472 C135.705,220.896 151.896,215.362 168.004,209.481 C169.56,208.913 171.042,207.682 173.337,208.294 C172.541,209.39 172.01,210.209 171.393,210.957 C133.869,256.41 122.336,308.009 134.884,365.302 C139.789,387.694 148.186,408.791 158.549,429.166 C159.43,430.898 161.259,432.485 158.839,434.801 C146.203,446.895 143.025,462.106 145.205,478.769 C147.442,495.862 156.189,508.054 172.813,514.035 C180.714,516.878 188.878,518.414 197.199,518.874 C201.347,519.104 203.095,520.682 204.065,524.76 C208.457,543.217 214.556,561.137 222.04,578.575 C241.897,624.846 270.639,664.026 312.926,692.392 C313.685,692.901 314.888,693.113 314.712,694.71 C313.12,695.164 311.572,694.549 309.995,694.325 C304.694,693.574 299.394,693.492 294.092,694.405 C276.856,697.374 263.655,707.263 251.867,719.349 C230.805,740.944 216.045,766.779 202.894,793.593 C199.326,800.866 195.353,807.433 188.753,812.42 C184.126,815.917 179.792,819.943 175.946,824.282 C172.972,827.637 170.363,827.579 166.457,826.285 C144.068,818.869 121.633,811.582 99.108,804.588 C82.462,799.42 65.44,808.431 60.094,824.962 C40.62,885.181 21.199,945.417 1.804,1005.66 C-4.015,1023.74 4.594,1040.6 22.564,1046.52 C32.03,1049.64 41.525,1052.67 51.009,1055.73 C138.265,1083.89 225.508,1112.09 312.819,1140.08 C317.465,1141.57 318.828,1143.54 318.675,1148.28 C318.125,1165.42 317.911,1182.57 319.03,1199.7 C319.583,1208.17 321.375,1210.51 329.61,1212.18 C332.61,1212.78 333.891,1213.66 333.989,1217.14 C335.04,1254.57 336.346,1292 337.553,1329.42 C338.771,1367.18 339.948,1404.95 341.155,1442.71 C342.443,1482.96 343.78,1523.21 344.993,1563.47 C345.13,1568.04 346.625,1571.46 351.308,1573.32 C349.758,1575.11 348.435,1576.58 347.18,1578.11 C341.555,1584.94 336.262,1591.97 333.855,1600.7 C330.596,1612.53 334.792,1622.17 345.67,1627.85 C351.819,1631.06 358.478,1632.45 365.283,1633.21 C392.001,1636.2 414.228,1628.35 430.417,1606.07 C436.941,1597.08 441.344,1587.07 444.472,1576.48 C445.098,1574.36 445.758,1573.21 448.371,1573.09 C454.372,1572.82 456.644,1570.37 456.919,1564.37 C457.941,1542.09 458.891,1519.82 459.86,1497.54 C461.321,1463.96 462.776,1430.38 464.234,1396.8 C464.459,1396.24 464.514,1395.66 464.517,1395.09 C464.547,1395.65 464.655,1396.21 464.938,1396.76 C466.579,1431.83 468.25,1466.89 469.849,1501.96 C470.805,1522.9 471.6,1543.86 472.575,1564.8 C472.824,1570.14 475.259,1573.05 479.99,1573.05 C483.447,1573.05 484.349,1574.55 485.208,1577.45 C488.153,1587.37 492.51,1596.67 498.354,1605.27 C520.045,1637.2 558.544,1638.72 583.252,1628.01 C591.397,1624.48 596.132,1617.99 596.666,1609.08 C597.02,1603.18 595.003,1597.66 592.223,1592.42 C588.531,1585.46 583.371,1579.59 578.264,1573.39 C581.906,1571.59 584.077,1569.13 584.211,1564.98 C585.366,1529.22 586.671,1493.47 587.826,1457.71 C588.691,1430.93 589.329,1404.14 590.196,1377.36 C591.914,1324.3 593.77,1271.24 595.387,1218.18 C595.504,1214.36 596.421,1212.66 600.319,1211.98 C607.717,1210.71 609.677,1208.61 610.109,1201.11 C612.353,1162.16 610.143,1123.23 609.219,1084.3 C609.141,1080.99 609.919,1078.63 612.219,1076.34 C620.01,1068.58 627.329,1060.37 634.306,1051.88 C651.458,1030.99 667.536,1009.4 677.172,983.791 C682.945,968.449 685.823,952.818 682.019,936.405 C674.656,904.636 665.511,873.386 654.736,842.628 C638.633,796.661 619.892,751.784 597.992,708.261 C596.443,705.182 596.776,703.857 599.879,702.267 C605.047,699.619 610.02,696.546 614.887,693.366 C657.68,665.406 686.792,626.294 706.98,579.976 C714.961,561.665 721.152,542.735 726.027,523.37 C726.938,519.749 730.99,517.37 734.724,518.901 C737.595,520.078 735.738,522.914 735.471,524.877 C733.717,537.75 732.649,550.688 732.21,563.652 C730.988,599.727 733.717,635.512 740.956,670.904 C749.729,713.792 764.145,754.472 789.058,790.857 C815.358,829.268 849.918,856.942 894.764,870.96 C901.595,873.095 904.424,871.95 907.174,865.944 C909.708,863.728 908.494,861.408 907.197,859.254 C905.562,856.539 902.846,855.354 899.906,854.429 C887.188,850.428 875.056,845.082 863.57,838.291 C862.042,837.434 860.446,836.692 859.043,835.629 C844.029,826.099 830.7,814.525 819.044,801.174 C792.903,771.23 776.656,736.01 765.478,698.257 C755.592,664.865 751.126,630.549 749.435,595.884 C748.331,573.245 749.687,550.612 752.664,528.147 C758.519,483.958 771.441,442.044 793.317,402.986 C811.685,370.191 835.236,341.775 864.068,317.753 C879.204,305.143 895.578,294.283 912.924,284.911 C914.442,283.96 916.083,283.306 917.809,282.863 C921.207,281.104 924.4,278.977 927.907,277.405 C943.132,270.583 958.711,264.721 974.741,260.079 C978.133,259.097 981.632,258.198 983.611,254.972 C985.412,252.037 988.079,250.698 991.181,249.696 C1023.4,239.285 1056.52,233.773 1090.27,232.311 C1111.95,231.372 1133.55,233.272 1154.93,236.821 C1203.56,244.895 1247.92,263.481 1288.11,291.996 C1312.75,309.481 1334.25,330.196 1351.89,354.812 C1363.53,370.363 1373.15,387.093 1381.21,404.733 C1389.36,423.016 1396.26,441.742 1401.42,461.112 C1410.68,495.874 1415.71,531.268 1416.38,567.18 C1416.76,587.3 1417.1,607.448 1415.69,627.6 C1414.57,643.551 1413.72,659.503 1410.67,675.217 C1404.02,709.559 1391.33,741.659 1374.08,772.006 C1361.34,794.427 1346.45,815.209 1326.92,832.31 C1311.99,845.385 1295.66,855.511 1275.04,856.659 C1268.95,856.998 1266.58,859.833 1265.65,866.265 C1265.65,867.328 1265.76,868.375 1266.08,869.393 C1267.03,871.522 1267.94,873.667 1270.83,873.593 C1277.2,874.484 1283.47,873.728 1289.66,872.3 C1313.99,866.689 1332.87,852.24 1349.71,834.729 C1371.5,812.073 1388.04,785.821 1401.39,757.507 C1416.82,724.808 1427.69,690.767 1431.22,654.6 C1433.82,628.061 1434.51,601.47 1434.11,574.817" fill="#6E4100"/>
      <path d="M1267.48,869.833 C1267.93,871.686 1269.53,872.506 1270.83,873.593 C1278.64,882.182 1286.54,890.686 1294.22,899.385 C1302.59,908.876 1310.49,918.774 1317.81,929.102 C1319.81,931.924 1321.16,932.493 1324.35,930.484 C1345.59,917.096 1366.98,903.948 1388.35,890.748 C1406.28,879.665 1422.71,883.666 1433.82,901.637 C1463.46,949.581 1492.98,997.595 1522.92,1045.35 C1532.03,1059.88 1528.77,1081.01 1512.34,1091.04 C1423.2,1145.42 1334.6,1200.68 1245.83,1255.67 C1241.4,1258.42 1236.85,1260.79 1231.58,1261.23 C1228.69,1261.47 1228.27,1262.61 1229.06,1265.26 C1232.48,1276.72 1235.72,1288.23 1238.99,1299.74 C1241.15,1307.3 1239.45,1310.42 1231.82,1312.72 C1209.3,1319.53 1186.23,1323.61 1162.94,1326.56 C1159.86,1326.95 1158.92,1327.81 1158.67,1330.95 C1155.5,1370.6 1152.13,1410.22 1148.85,1449.86 C1145.77,1487.02 1142.9,1524.19 1139.55,1561.33 C1138.82,1569.48 1141.93,1575.07 1147.92,1579.66 C1156.23,1586.04 1162.59,1593.66 1164.25,1604.38 C1166.43,1618.45 1154.5,1632.96 1140.16,1633.68 C1136,1633.89 1131.86,1633.69 1127.77,1632.69 C1112.55,1628.98 1090.73,1614.25 1081.23,1600.98 C1072.09,1615.91 1057.15,1623 1042.27,1629.95 C1033.12,1634.23 1023.44,1635.76 1013.79,1631.35 C998.933,1624.56 993.76,1608.34 1001.73,1594.06 C1004.94,1588.3 1009.23,1583.56 1014.59,1579.66 C1020.58,1575.31 1023.7,1569.62 1023.02,1561.81 C1019.99,1527 1017.17,1492.17 1014.29,1457.34 C1011.83,1427.49 1009.4,1397.63 1006.95,1367.78 C1005.93,1355.34 1004.81,1342.91 1003.95,1330.46 C1003.75,1327.67 1002.72,1326.98 1000.08,1326.64 C976.805,1323.65 953.707,1319.69 931.202,1312.82 C922.969,1310.3 921.339,1307.4 923.66,1299.25 C934.801,1260.11 945.935,1220.98 957.136,1181.87 C958.127,1178.41 959.639,1175.21 953.908,1174.76 C952.48,1174.64 951.164,1173.12 949.417,1172.01 C947.579,1180.04 946.434,1188.1 943.843,1195.67 C939.326,1208.88 938.687,1223.29 931.01,1235.52 C925.54,1244.24 919.523,1252.28 910.339,1257.38 C904.976,1260.36 899.248,1261.66 893.067,1261.06 C888.254,1260.59 885.602,1258.2 884.652,1253.41 C883.593,1248.07 884.241,1242.84 885.26,1236.87 C875.53,1240.18 866.121,1242.39 856.461,1243.27 C848.828,1243.96 841.182,1244.58 833.727,1241.9 C818.969,1236.6 813.839,1222.21 821.99,1208.82 C824.802,1204.2 828.64,1200.47 832.892,1197.25 C841.774,1190.51 850.758,1183.89 860.521,1178.46 C863.315,1176.91 864.97,1175.04 865.855,1171.88 C884.827,1104.22 903.878,1036.58 922.97,968.958 C931.274,939.543 939.701,910.162 948.072,880.766 C948.684,871.563 953.859,864.369 958.525,856.941 C960.44,853.892 964.923,851.148 964.063,848.097 C963.343,845.538 958.114,845.304 954.913,843.968 C930.271,833.685 907.711,820.226 887.848,802.143 C859.565,776.393 840.303,744.977 827.631,709.214 C825.852,704.192 823.955,699.185 822.753,693.987 C821.94,690.474 820,689.215 816.454,688.96 C805.961,688.206 796.174,685.317 787.796,678.538 C783.572,675.12 780.269,671.024 777.672,666.291 C768.349,649.054 769.04,630.926 772.848,612.518 C775.711,605.022 778.69,597.614 785.478,592.565 C791.554,588.045 798.284,585.443 805.883,585.578 C809.816,585.648 811.294,584.198 811.79,580.132 C816.013,545.551 824.432,512.06 838.422,480.057 C848.292,457.478 860.926,436.583 876.583,417.567 C897.597,392.043 922.786,371.64 952.112,356.298 C971.7,346.05 992.18,338.234 1013.61,332.878 C1016.43,332.171 1018.27,331.081 1018.9,327.849 C1019.88,322.838 1023.95,319.711 1028.31,319.914 C1033.07,320.136 1036.6,323.587 1037.21,329.023 C1040.59,359.159 1051.34,386.469 1068.77,411.17 C1080.81,428.228 1095.61,442.026 1115.47,449.681 C1121.13,451.864 1127.02,452.847 1132.98,453.532 C1140.48,454.393 1143.03,457.241 1143.09,464.96 C1141.66,470.016 1138.2,472.274 1133.07,472.139 C1117.63,471.733 1103.71,466.42 1090.89,458.283 C1070.01,445.037 1054.87,426.441 1042.68,405.224 C1033.66,389.523 1027.04,372.867 1022.99,355.23 C1022.04,351.097 1020.05,350.331 1016.2,351.356 C979.768,361.042 946.881,377.49 918.072,401.981 C893.716,422.688 874.988,447.746 860.859,476.22 C846.319,505.526 837.54,536.684 832.233,568.93 C827.975,594.806 828.699,620.607 831.962,646.461 C832.15,647.949 832.346,649.432 832.379,650.934 C835.797,671.979 840.96,692.558 848.744,712.437 C857.32,734.353 869.253,754.257 884.631,772.072 C916.424,808.905 957.494,829.289 1004.32,839.412 C1023.56,843.572 1043.03,845.557 1062.69,846.643 C1097.03,848.539 1130.84,845.513 1164.22,837.637 C1207.81,827.354 1245.79,807.01 1275.85,773.327 C1293.32,753.741 1306.12,731.202 1315.06,706.498 C1321.11,689.469 1325.78,672.089 1328.45,654.194 C1331,638.759 1332.13,623.152 1332.31,607.582 C1332.63,579.799 1326.99,552.79 1319.63,526.123 C1316.97,516.501 1313.78,507.063 1309.99,497.828 C1309.17,495.843 1308.17,493.89 1308.09,491.673 C1308.35,488.978 1310.46,488.316 1312.55,487.628 C1324.81,483.594 1324.94,483.779 1329.44,495.726 C1339.77,523.154 1346.19,551.52 1349.96,580.519 C1350.4,583.87 1351.33,585.447 1355.07,585.624 C1370.39,586.346 1380.87,594.352 1385.85,608.572 C1392.26,626.854 1391.8,645.342 1384.01,663.18 C1377.8,677.409 1366.3,685.855 1351.1,687.708 C1342.69,688.734 1339.18,692.065 1336.8,700.062 C1327.52,731.223 1312.63,759.551 1291.23,784.235 C1274.7,803.306 1255.32,818.885 1233.22,831.066 C1229.46,833.139 1225.84,835.469 1221.3,837.367 C1237.88,844.502 1251.62,854.842 1264.41,866.557 C1265.82,867.292 1266.01,869.164 1267.48,869.833" fill="#6E4100"/>
    </g>
    <path d="M779.072,666.767 C788.385,681.163 802.087,687.4 818.755,687.616 C822.997,687.671 823.075,690.499 823.802,693.065 C831.263,719.372 842.349,743.979 858.042,766.44 C884.368,804.118 919.917,829.603 962.666,845.565 C964.193,846.135 965.741,846.649 967.809,847.374 C958.663,857.275 952.299,868.409 948.071,880.767 C947.812,879.721 947.254,879.105 946.11,878.834 C933.206,875.782 920.684,871.604 908.65,865.997 C908.239,865.805 907.669,865.954 907.174,865.944 C907.671,860.114 905.89,857.517 900.096,855.837 C887.584,852.21 876,846.399 864.372,840.695 C863.811,840.42 863.431,839.776 862.967,839.303 C862.053,837.773 860.453,837.093 859.061,836.149 C846.495,826.093 836.092,814.072 826.854,800.962 C804.445,769.161 791.326,733.476 782.752,695.877 C780.977,688.094 779.564,680.242 778.267,672.367 C777.949,670.435 777.273,668.412 779.072,666.767" fill="#C6986A"/>
    <path d="M464.234,1396.8 C464.234,1395.25 464.234,1393.7 464.234,1391.45 C465.276,1393.64 465.199,1395.2 464.938,1396.76 L464.589,1396.84 L464.234,1396.8" fill="#DDD5CB"/>
    <path d="M710.062,519.866 C703.253,549.01 692.648,576.712 677.681,602.621 C641.725,664.866 588.243,702.676 517.169,713.226 C469.449,720.309 421.473,719.891 374.874,704.604 C317.603,685.816 276.196,648.245 247.968,595.544 C235.99,573.182 226.972,549.65 220.844,525.023 C222.602,523.822 222.705,523.677 223.998,524.596 C233.1,531.063 243.492,533.764 254.354,535.058 C265.696,536.41 276.211,534.257 285.519,527.338 C289.819,524.141 293.609,520.363 296.987,516.253 C307.62,503.312 308.048,490.459 299.644,475.029 C281.817,442.3 239.191,442.333 218.066,472.02 C215.938,475.011 215.281,479.232 211.27,480.777 C205.184,449.95 205.268,418.894 208.164,387.788 C211.576,351.15 219.328,315.506 234.08,281.637 C264.801,211.109 317.677,167.22 392.694,149.978 C396.842,149.024 398.493,149.785 399.924,154.132 C416.599,204.79 442.64,250.028 479.69,288.55 C498.562,308.172 520.315,323.911 546.223,333.259 C547.783,333.822 549.329,334.494 550.941,334.828 C556.754,336.033 560.694,332.978 561.183,327.083 C562.095,316.089 560.914,305.128 560.719,294.152 C560.697,292.903 560.716,291.655 560.716,289.274 C571.111,301.078 581.549,311.229 592.923,320.397 C613.943,337.341 637.311,350.26 662.084,360.75 C668.12,363.305 672.253,361.148 674.273,354.676 C676.924,346.185 677.871,337.435 677.985,328.582 C678.055,323.132 677.998,317.68 677.998,311.222 C679.51,312.899 680.468,313.887 681.343,314.944 C690.822,326.402 701.25,336.904 712.946,346.102 C714.885,347.627 715.958,349.253 716.399,351.765 C723.76,393.695 726.195,435.703 718.813,477.908 C718.187,480.397 717.03,480.508 715.625,478.517 C714.09,476.343 712.866,473.967 711.39,471.747 C697.411,450.715 668.774,447.217 648.716,463.676 C641.992,469.194 636.695,475.842 633.569,484.346 C627.996,499.501 632.613,513.055 644.575,521.591 C659.251,532.066 675.813,535.17 693.346,529.046 C698.111,527.381 702.103,524.364 705.793,520.891 C706.767,519.975 707.973,517.256 710.062,519.866" fill="#FEF8EA"/>
    <path d="M1263.81,867.818 C1250.33,855.36 1235.71,844.565 1218.03,837.45 C1243.4,825.404 1265.49,809.936 1284.31,789.964 C1310.44,762.238 1327.28,729.354 1337.78,693.016 C1338.82,689.435 1339.93,687.809 1344.25,687.526 C1369.66,685.858 1385.97,668.923 1388.06,643.567 C1388.93,632.987 1388.54,622.662 1385.83,612.451 C1381.53,596.288 1369.88,587.128 1353.21,586.908 C1350.09,586.866 1349.12,586.131 1348.74,582.829 C1345.05,550.652 1337.57,519.388 1325.59,489.242 C1324.5,486.505 1323.17,485.595 1320.4,486.858 C1316.68,488.558 1312.16,487.979 1308.83,490.86 C1300.5,493.049 1292.16,495.185 1283.42,493.564 C1283.28,493.479 1283.05,493.406 1283.02,493.288 C1281.35,485.476 1275.67,484.09 1268.7,483.297 C1253.65,481.586 1240.71,474.498 1229.6,464.628 C1199.47,437.845 1183.1,403.594 1176.64,364.227 C1176.24,361.765 1175.9,359.287 1175.53,356.818 C1174.94,352.83 1171.91,350.298 1168.43,350.609 C1164.8,350.934 1162.21,353.693 1162.34,357.851 C1162.51,364.016 1163.61,370.109 1164.9,376.128 C1171.39,406.442 1183.83,433.987 1203.85,457.82 C1213.21,468.958 1223.74,478.877 1236.48,486.218 C1237.95,487.07 1240.55,487.384 1239.67,490.253 C1237.74,491.398 1235.78,490.649 1233.84,490.309 C1217.21,487.392 1201.24,482.207 1185.8,475.522 C1177.91,472.1 1169.89,470.059 1161.39,469.14 C1154.8,468.427 1148.22,467.35 1141.99,464.842 C1141.95,457.703 1139.68,455.394 1132.62,454.83 C1116.05,453.508 1101.71,446.573 1089.53,435.764 C1059.39,409.016 1043.04,374.81 1036.87,335.378 C1036.48,332.917 1036.27,330.429 1035.89,327.967 C1035.19,323.456 1032.12,321.388 1027.94,321.068 C1024.12,320.775 1019.97,324.131 1020.17,327.98 C1020.4,332.385 1018.07,333.079 1014.75,333.913 C966.891,345.98 924.806,368.404 890.321,404.123 C862.804,432.624 843.558,466.185 830.651,503.493 C821.761,529.19 815.774,555.549 812.883,582.598 C812.65,584.777 812.616,587.023 809.365,586.864 C791.063,585.968 780.137,595.49 774.164,611.936 C772.293,610.461 772.724,608.332 772.676,606.395 C771.383,555.191 777.924,505.046 793.669,456.257 C808.514,410.259 830.95,368.287 862.353,331.418 C877.265,313.91 893.476,297.613 912.698,284.66 C914.235,283.879 915.62,282.856 917.022,281.86 C929.844,274.031 943.911,269.033 957.944,263.996 C964.192,261.754 970.585,259.894 976.965,258.043 C980.036,257.152 982.534,255.735 983.62,252.623 C984.255,250.802 985.542,250.17 987.223,249.612 C1009.99,242.064 1033.25,236.766 1057.06,233.79 C1074.24,231.643 1091.47,230.443 1108.78,230.98 C1150.04,232.261 1189.74,240.427 1227.84,256.751 C1268.18,274.039 1303.69,298.025 1333.59,330.184 C1340.69,337.826 1347.65,345.655 1353.05,354.679 C1350.59,355.64 1349.52,353.533 1348.08,352.353 C1346.68,351.209 1345.58,349.723 1343.35,348.069 C1343.72,368.08 1340.17,386.337 1326.78,401.336 C1313.29,416.446 1295.56,422.089 1276.24,424.088 C1291.31,430.717 1307.13,431.738 1323.38,428.889 C1344.26,425.227 1363.02,416.562 1380.41,404.688 C1380.97,404.309 1381.53,403.973 1382.18,403.797 C1398.09,438.12 1407.57,474.243 1413.14,511.581 C1418.45,547.138 1418.46,582.854 1417.8,618.63 C1416.88,669.026 1405.09,716.666 1381.59,761.346 C1369.6,784.138 1355.7,805.649 1337.69,824.144 C1322.44,839.806 1305.45,853.064 1283.11,857.212 C1280.83,857.634 1278.49,857.748 1276.17,857.879 C1269.65,858.249 1267.37,860.4 1266.72,866.945 C1265.96,867.937 1264.65,867.094 1263.81,867.818" fill="#C6986A"/>
    <path d="M736.153,166.791 C748.169,187.719 755.975,210.312 762.357,233.445 C770.028,261.25 775.063,289.441 776.436,318.369 C777.518,341.179 773.215,363.014 767.491,384.764 C764.269,397.009 760.083,408.93 754.815,420.466 C753.597,423.134 752.432,424.158 749.153,423.07 C739.273,419.79 739.294,419.985 738.917,409.356 C738.339,393.065 736.672,376.869 734.259,360.389 C736.545,359.985 738.391,361.316 740.386,361.679 C745.627,362.635 750.103,360.166 750.961,355.81 C751.9,351.047 749.351,347.434 744.134,345.923 C734.422,343.111 726.778,336.835 719.286,330.509 C701.702,315.664 686.789,298.539 676.013,278.05 C673.879,273.993 670.616,271.958 666.195,273.143 C661.983,274.272 660.139,277.632 660.284,281.931 C660.791,296.894 662.275,311.817 662.031,326.813 C661.966,330.818 661.554,334.772 661.199,338.749 C660.904,342.042 659.802,342.212 657.124,340.959 C629.284,327.925 603.901,311.401 582.501,289.089 C574.417,280.659 566.937,271.744 559.982,262.377 C557.357,258.842 554.42,255.928 549.544,257.737 C544.896,259.462 544.072,263.286 543.947,267.817 C543.557,281.989 545.031,296.095 545.135,310.245 C545.176,315.687 545.137,315.757 540.003,313.295 C526.547,306.843 514.357,298.465 503.226,288.576 C467.385,256.731 442.868,217.043 424.076,173.49 C417.417,158.056 411.545,142.324 409.895,125.353 C409.503,121.328 405.676,118.678 401.648,118.909 C397.49,119.147 393.724,122.342 394.32,126.785 C395.177,133.168 391.76,133.888 386.951,135.011 C340.285,145.91 299.347,167.265 266.271,202.446 C237.637,232.904 219.113,269.097 207.068,308.821 C197.367,340.813 192.145,373.562 190.891,406.956 C188.995,406.745 188.718,405.098 188.156,403.774 C174.952,372.726 167.482,340.512 169.859,306.614 C171.461,283.766 178.122,262.201 189.043,242.023 C201.086,219.772 217.303,201.01 236.905,185.112 C238.447,183.862 240.031,182.622 241.871,181.808 C242.889,181.201 243.806,180.429 244.843,179.835 C243.714,180.386 242.77,181.233 241.65,181.807 C235,185.079 228.268,188.164 221.432,191.012 C219.935,191.635 218.319,192.361 216.933,190.695 C219.821,187.335 223.908,185.653 227.452,183.215 C231.841,180.197 233.202,176.216 231.065,172.163 C228.846,167.953 224.458,166.758 219.448,169.192 C195.185,180.981 170.682,192.192 144.926,200.41 C142.725,201.112 140.582,202.171 138.162,201.959 C136.688,200.2 138.134,198.842 138.861,197.465 C150.867,174.726 165.323,153.764 182.773,134.77 C201.978,113.865 224.015,96.796 248.896,83.286 C251.961,81.622 255.149,80.206 258.491,79.173 C260.393,78.417 262.398,77.876 264.041,76.564 C278.594,71.876 293.529,68.93 308.654,66.906 C319.043,65.517 329.486,64.842 339.972,64.586 C348.55,64.377 351.642,59.652 348.393,51.859 C347.054,48.647 349.926,48.996 351.051,48.398 C371.719,37.429 393.508,29.416 416.258,23.971 C443.98,17.336 472.155,15.029 500.472,17.159 C566.789,22.147 625.208,46.49 675.308,90.452 C687.976,101.568 699.468,113.774 709.886,127.006 C704.143,145.207 692.205,157.087 673.684,161.953 C665.575,164.084 657.306,163.723 648.38,161.856 C658.642,170.995 670.215,174.756 682.955,175.539 C698.626,176.501 713.737,173.837 728.451,168.519 C730.922,167.626 733.373,166.409 736.153,166.791" fill="#BB9D8D"/>
    <path d="M443.623,969.49 C447.265,982.764 450.605,994.928 453.94,1007.09 C454.336,1008.54 454.696,1009.99 455.089,1011.43 C456.221,1015.59 458.9,1018.35 463.217,1018.22 C467.412,1018.1 469.992,1015.52 471.168,1011.24 C483.705,965.554 496.359,919.903 508.953,874.236 C515.36,851.003 521.707,827.754 528.09,804.515 C528.31,803.715 528.368,802.607 528.915,802.201 C537.27,795.993 536.472,786.029 538.777,777.511 C543.334,760.673 547.159,743.636 551.144,726.647 C551.897,723.437 553.295,721.662 556.638,720.639 C563.625,718.501 570.538,716.015 577.25,713.132 C580.886,711.57 582.33,712.393 583.989,715.763 C603.547,755.513 620.951,796.174 635.941,837.862 C647.088,868.864 656.285,900.434 664.714,932.294 C669.864,951.762 666.8,969.386 658.46,986.865 C647.974,1008.84 633.621,1028.18 617.775,1046.49 C615.181,1049.49 612.523,1052.43 609.159,1056.23 C608.739,1052.62 608.234,1049.96 608.153,1047.29 C607.633,1030.15 607.303,1013.01 606.728,995.873 C605.807,968.44 604.813,941.008 603.72,913.581 C602.945,894.143 601.953,874.713 601.061,855.279 C600.816,849.943 597.599,846.282 593.098,846.23 C588.402,846.176 584.853,850.137 585.078,855.718 C586.282,885.629 587.665,915.534 588.832,945.446 C589.468,961.744 589.657,978.058 590.299,994.355 C591.567,1026.61 592.507,1058.87 593.434,1091.13 C593.782,1103.28 593.737,1115.43 594.263,1127.57 C595.184,1148.86 595.094,1170.17 594.933,1191.48 C594.91,1194.59 594.666,1197.08 590.84,1197.62 C566.331,1201.09 541.849,1202.46 517.445,1196.85 C498.953,1192.61 482.608,1184.85 471.072,1168.93 C467.839,1164.48 461.983,1164.21 458.625,1168.66 C441.267,1191.67 416.437,1197.72 389.666,1200.02 C372.615,1201.49 355.805,1199.74 338.961,1197.69 C336.276,1197.37 334.962,1196.38 334.807,1193.33 C334.085,1179.2 334.129,1165.08 334.737,1150.95 C334.857,1148.17 335.572,1147.55 338.338,1148.41 C344.52,1150.31 350.47,1152.97 356.966,1153.89 C371.665,1155.99 386.145,1147.14 390.687,1133.2 C402.902,1095.74 414.942,1058.21 427.056,1020.72 C432.456,1004 437.867,987.285 443.623,969.49" fill="#4576AD"/>
    <path d="M528.548,1557.44 C516.717,1557.44 504.883,1557.3 493.056,1557.52 C489.062,1557.6 488.069,1556.23 487.926,1552.35 C486.717,1519.6 485.291,1486.85 483.887,1454.11 C482.932,1431.83 481.885,1409.57 480.92,1387.3 C479.558,1355.88 478.254,1324.47 476.889,1293.06 C475.965,1271.78 474.824,1250.52 474.086,1229.25 C473.726,1218.86 466.796,1218.43 460.01,1220.24 C456.986,1221.04 455.897,1223.86 455.754,1226.95 C455.185,1239.24 454.525,1251.53 453.999,1263.82 C452.556,1297.56 451.179,1331.31 449.744,1365.05 C448.825,1386.66 447.84,1408.26 446.902,1429.86 C445.51,1461.94 444.161,1494.02 442.731,1526.1 C442.324,1535.24 441.565,1544.35 441.249,1553.49 C441.145,1556.49 440.289,1557.51 437.218,1557.5 C413.056,1557.39 388.894,1557.41 364.732,1557.48 C362.059,1557.49 360.936,1556.82 360.858,1553.86 C360.318,1533.4 359.58,1512.95 358.926,1492.49 C357.912,1460.72 356.934,1428.95 355.902,1397.19 C355.281,1378.06 354.551,1358.94 353.936,1339.82 C352.902,1307.71 352.082,1275.61 350.805,1243.51 C350.488,1235.53 350.362,1227.55 349.962,1219.57 C349.804,1216.43 350.255,1215.31 353.882,1215.57 C366.486,1216.49 379.081,1217.06 391.764,1215.97 C418.21,1213.7 442.965,1207.43 462.798,1188.36 C464.22,1186.99 465.036,1187.06 466.428,1188.37 C487.113,1207.78 512.621,1214.2 540.004,1216.14 C552.032,1216.99 563.943,1216.27 575.883,1215.56 C579.171,1215.36 579.86,1216.27 579.744,1219.3 C579.002,1238.59 578.373,1257.88 577.749,1277.17 C576.727,1308.77 575.746,1340.37 574.732,1371.97 C574.082,1392.26 573.399,1412.55 572.741,1432.84 C571.733,1463.94 570.9,1495.04 569.622,1526.13 C569.28,1534.45 568.883,1542.77 568.983,1551.08 C569.042,1555.91 567.834,1557.79 562.537,1557.58 C551.224,1557.13 539.88,1557.44 528.548,1557.44" fill="#9D9D9D"/>
    <path d="M435.087,939.365 C435.16,945.138 433.364,948.782 432.146,952.558 C413.516,1010.29 394.878,1068.02 376.195,1125.73 C372.722,1136.46 365.231,1140.26 354.48,1136.81 C328.057,1128.33 301.685,1119.7 275.218,1111.36 C271.589,1110.22 271.046,1108.97 272.18,1105.5 C287.435,1058.73 302.558,1011.91 317.704,965.107 C324.407,944.391 331.193,923.701 337.675,902.917 C338.761,899.434 340.103,899.018 343.224,900.037 C369.926,908.754 396.671,917.342 423.384,926.025 C430.91,928.472 435.068,933.93 435.087,939.365" fill="#BFBFBF"/>
    <path d="M159.794,841.173 C151.119,851.542 143.633,861.903 138.479,873.763 C129.133,895.27 133.081,913.547 150.637,929.17 C152.614,930.93 152.8,932.403 152.058,934.69 C139.034,974.84 126.035,1015 113.16,1055.2 C112.255,1058.02 111.144,1058.34 108.577,1057.5 C81.412,1048.61 54.197,1039.87 27.04,1030.96 C17.885,1027.95 14.014,1019.99 17.005,1010.73 C36.304,950.945 55.626,891.171 74.983,831.409 C78.361,820.977 85.938,817.129 96.324,820.454 C116.426,826.89 136.511,833.379 156.598,839.86 C157.532,840.162 158.42,840.604 159.794,841.173" fill="#BFBFBF"/>
    <path d="M913.87,284.719 C845.914,336.801 806.055,406.553 786.094,488.643 C776.25,529.126 772.692,570.311 774.164,611.936 C771.379,625.558 770.622,639.181 773.827,652.872 C774.971,657.758 777.214,662.178 779.072,666.767 C780.579,682.022 784.059,696.898 788.01,711.653 C797.564,747.332 812.079,780.67 835.137,809.891 C842.584,819.329 851.013,827.826 859.913,835.875 C860.139,836.768 859.993,837.278 858.923,836.837 C832.203,820.526 811.914,797.968 795.719,771.497 C774.44,736.716 762.2,698.629 754.974,658.77 C748.473,622.914 746.155,586.767 749.051,550.428 C755.665,467.448 784.259,393.951 843.872,334.22 C864.192,313.86 887.134,296.893 912.825,283.78 C913.93,283.251 914.027,283.844 913.87,284.719" fill="#FEFEFE"/>
    <path d="M301.424,844.298 C291.911,855.484 282.264,865.548 272.113,875.115 C255.483,890.788 238.056,905.451 217.609,916.035 C207.359,921.341 196.728,925.652 184.939,925.764 C170.862,925.898 160.379,919.274 153.116,907.618 C147.782,899.059 149.337,890.036 152.895,881.246 C157.641,869.519 165.077,859.487 173.384,850.124 C194.496,826.327 219.41,806.917 245.143,788.476 C247.352,786.893 248.497,786.347 249.257,789.971 C251.31,799.77 254.463,809.287 259.852,817.801 C268.395,831.299 278.117,840.292 301.424,844.298" fill="#4576AD"/>
    <path d="M232.212,1097.28 C227.055,1095.67 222.125,1094.16 217.221,1092.58 C196.024,1085.72 174.866,1078.73 153.61,1072.06 C150.001,1070.93 149.897,1069.55 150.926,1066.41 C160.735,1036.38 170.434,1006.32 180.031,976.232 C181.009,973.165 182.054,972.482 185.25,973.531 C210.524,981.819 235.857,989.93 261.2,998.004 C264.026,998.904 265.122,999.775 264.019,1003.13 C254.093,1033.29 244.399,1063.53 234.553,1093.71 C234.125,1095.03 234.539,1097.33 232.212,1097.28" fill="#BFBFBF"/>
    <path d="M352.803,713.966 C360.053,716.451 366.58,718.699 373.115,720.919 C375.461,721.716 375.604,723.816 376.047,725.735 C381.327,748.554 386.623,771.37 391.842,794.203 C392.574,797.404 393.508,800.312 396.74,801.841 C398.281,802.569 398.609,804.044 399.007,805.51 C408.058,838.867 417.127,872.218 426.168,905.577 C426.498,906.797 427.647,908.162 426.554,909.311 C425.417,910.507 424.07,909.319 422.878,908.936 C397.872,900.912 372.887,892.819 347.857,884.87 C344.734,883.878 343.812,882.813 344.65,879.261 C352.644,845.377 358.419,811.181 357.923,776.195 C357.792,767.039 357.05,757.923 355.143,748.963 C354.25,744.768 354.93,740.934 355.835,736.835 C357.509,729.249 356.143,721.758 352.803,713.966" fill="#4576AD"/>
    <path d="M211.27,480.777 C216.652,470.63 223.541,461.839 233.573,455.843 C256.167,442.338 285.23,448.491 298.898,471.4 C301.994,476.589 304.468,481.977 306,487.793 C308.725,498.139 305.573,507.103 299.356,515.308 C288.927,529.071 275.752,537.914 257.833,536.692 C245.342,535.84 233.152,533.212 222.903,525.165 C222.211,524.622 221.6,524.088 220.844,525.024 C216.477,510.529 213.559,495.721 211.27,480.777" fill="#FFD5BA"/>
    <path d="M260.701,752.615 C260.701,750.335 260.701,748.18 260.701,746.026 C260.703,731.766 268.166,723.061 281.275,718.772 C295.034,714.269 309.185,712.508 323.605,713.911 C334.654,714.986 340.049,720.443 340.427,730.022 C340.638,735.348 338.418,738.906 333.368,740.755 C326.893,743.126 320.046,743.566 313.347,744.779 C311.382,745.135 309.398,745.406 307.454,745.85 C303.839,746.675 301.522,748.911 301.096,752.636 C300.682,756.261 301.969,759.225 305.447,760.836 C309.664,762.79 313.939,764.619 318.172,766.541 C320.136,767.433 322.129,768.295 323.986,769.381 C332.49,774.355 332.622,780.039 324.194,784.981 C319.761,787.581 315.046,789.704 310.446,792.019 C307.045,793.731 304.862,796.302 305.095,800.263 C305.329,804.222 307.828,806.379 311.367,807.834 C316.433,809.917 321.491,812.08 326.341,814.612 C331.598,817.357 331.555,819.212 326.676,822.612 C311.24,833.369 286.294,828.235 275.225,811.908 C266.646,799.254 263.963,784.687 262.137,769.916 C261.423,764.141 261.16,758.31 260.701,752.615" fill="#FEF8EA"/>
    <path d="M710.062,519.866 C708.27,518.879 707.76,520.686 707,521.464 C695.959,532.765 682.301,534.97 667.558,532.419 C655.713,530.369 644.711,526.171 636.982,516.225 C626.073,502.186 628.138,486.079 639.374,471.212 C647.84,460.008 659.484,453.046 673.64,452.112 C688.802,451.112 701.674,456.554 711.006,469.002 C713.089,471.78 714.873,474.822 716.464,477.912 C717.525,479.971 718.044,478.48 718.813,477.907 C716.621,492.045 714.12,506.118 710.062,519.866" fill="#FFD5BA"/>
    <path d="M216.933,190.695 C222.315,190.307 226.618,187.081 231.414,185.159 C234.906,183.759 238.325,182.179 241.776,180.68 C242.937,180.28 243.186,180.854 243.035,181.857 C222.59,197.766 205.16,216.356 192.284,238.987 C174.854,269.622 168.314,302.456 171.82,337.508 C174.249,361.788 181.538,384.631 190.891,406.956 C190.648,411.093 191.617,415.885 189.831,419.188 C187.95,422.666 182.255,421.266 178.699,423.223 C175.184,425.158 173.757,423.725 172.174,420.554 C160.469,397.098 151.462,372.799 147.788,346.683 C141.32,300.714 152.801,259.724 181.85,223.66 C191.989,211.073 203.327,199.648 216.933,190.695" fill="#FEFEFE"/>
    <path d="M289.365,882.778 C292.604,883.833 296.124,884.854 299.548,886.133 C302.338,887.177 300.649,889.161 300.145,890.727 C291.58,917.314 282.977,943.889 274.385,970.467 C273.363,973.629 272.106,976.741 271.413,979.974 C270.662,983.478 269.218,983.977 265.875,982.863 C246.788,976.499 227.621,970.374 208.481,964.169 C202.156,962.119 195.872,959.923 189.484,958.092 C186.894,957.35 186.618,956.329 187.18,953.871 C189.008,945.877 192.127,941.034 201.704,939.1 C222.653,934.868 239.969,922.519 256.702,909.696 C266.494,902.192 275.664,893.963 284.622,885.489 C285.878,884.3 286.894,882.481 289.365,882.778" fill="#BFBFBF"/>
    <path d="M462.687,977.982 C459.619,966.81 456.546,955.64 453.482,944.468 C450.404,933.245 447.923,921.813 444.092,910.854 C440.452,900.442 442.82,890.505 444.325,880.406 C448.295,853.774 452.42,827.166 456.525,800.554 C456.791,798.832 456.602,797.25 455.975,795.674 C454.991,793.202 453.988,790.738 453.018,788.261 C448.423,776.53 448.551,776.739 459.341,770.334 C462.738,768.318 464.925,769.729 467.513,771.077 C477.068,776.053 477.886,776.537 472.602,785.794 C467.083,795.463 468.51,804.82 470.297,814.682 C475.218,841.828 480.002,868.999 484.822,896.163 C485.173,898.138 485.233,900.121 484.682,902.104 C477.656,927.403 470.647,952.706 463.634,978.009 C463.318,978 463.003,977.99 462.687,977.982" fill="#FF7164"/>
    <path d="M1382.18,403.797 C1382.25,405.124 1381.52,405.92 1380.47,406.588 C1357.09,421.468 1332.33,432.265 1303.94,431.633 C1292.99,431.389 1282.31,429.358 1272.14,423.32 C1321.22,419.236 1344.34,391.013 1341.9,345.038 C1346.58,347.414 1348.88,352.18 1353.05,354.678 C1365.02,369.712 1373.96,386.541 1382.18,403.797" fill="#FEFEFE"/>
    <path d="M400.542,1573.7 C408.528,1573.7 416.515,1573.76 424.5,1573.67 C427.45,1573.64 428.415,1574.45 427.26,1577.5 C419.316,1598.45 406.757,1614.39 382.916,1617.46 C373.315,1618.7 363.673,1617.67 354.485,1614.32 C349.022,1612.33 347.501,1608.12 350.085,1602.66 C355.304,1591.64 363.856,1583.25 372.407,1574.88 C373.765,1573.55 375.428,1573.7 377.084,1573.7 C384.903,1573.7 392.723,1573.7 400.542,1573.7" fill="#6E4E25"/>
    <path d="M528.64,1573.7 C531.799,1573.7 535.073,1574.25 538.098,1573.61 C555.936,1569.85 564.99,1581.62 573.903,1593.6 C576.261,1596.77 578.509,1600.04 579.679,1603.97 C581.302,1609.41 580.571,1612.06 575.101,1614.04 C561.964,1618.81 548.521,1619.64 535.256,1614.74 C517.477,1608.17 508.227,1593.82 501.923,1576.96 C500.756,1573.83 502.327,1573.66 504.697,1573.68 C512.678,1573.73 520.659,1573.7 528.64,1573.7" fill="#6E4E25"/>
    <path d="M258.868,79.706 C217.041,99.782 183.879,129.777 157.946,168.004 C150.579,178.863 143.465,189.888 138.162,201.959 C130.435,205.11 122.331,206.143 113.513,206.78 C115.895,200.701 119.045,195.839 121.998,190.891 C153.464,138.15 197.051,99.885 255.423,79.314 C256.2,79.04 257.032,78.921 257.839,78.73 C258.885,78.313 259.113,78.76 258.868,79.706" fill="#FEFEFE"/>
    <path d="M736.153,166.791 C712.786,176.547 688.97,181.464 664.069,173.005 C656.788,170.531 650.441,166.458 644.581,159.665 C655.202,162.122 664.754,162.95 674.273,160.513 C689.688,156.566 699.792,146.344 706.784,132.538 C707.738,130.655 708.079,128.414 709.886,127.006 C719.784,139.514 728.801,152.603 736.153,166.791" fill="#FEFEFE"/>
    <path d="M452.796,755.626 C439.957,762.89 427.713,769.831 415.455,776.748 C405.451,782.393 405.494,782.369 402.979,771.246 C399.869,757.485 396.76,743.721 393.43,730.013 C392.632,726.73 393.564,726.261 396.433,726.909 C404.217,728.666 412.084,729.962 420.021,730.784 C421.465,730.933 422.477,731.667 423.516,732.488 C433.035,740.01 442.554,747.532 452.796,755.626" fill="#FEFEFE"/>
    <path d="M198.776,502.959 C189.41,502.168 180.694,500.935 172.926,496.393 C162.496,490.295 160.55,479.968 160.675,469.167 C160.867,452.603 171.352,440.641 187.619,437.259 C190.658,436.627 190.495,438.013 190.556,440.046 C191.192,461.066 194.8,481.704 198.776,502.959" fill="#FEF8EA"/>
    <path d="M534.651,726.856 C530.352,744.559 526.145,761.773 522.022,779.007 C521.551,780.975 520.827,780.92 519.292,780.109 C505.357,772.745 491.414,765.397 477.414,758.159 C475.13,756.978 475.827,756.239 477.274,755.098 C487.06,747.373 496.817,739.612 506.623,731.914 C507.355,731.339 508.371,730.98 509.304,730.829 C517.487,729.505 525.681,728.251 534.651,726.856" fill="#FEFEFE"/>
    <path d="M494.983,861.451 C492.664,848.384 490.345,835.317 488.027,822.25 C487.476,819.145 487.313,815.909 486.309,812.959 C482.994,803.215 485.585,794.504 490.223,785.948 C491.278,784.001 492.03,783.884 493.865,784.896 C499.529,788.021 505.277,790.999 511.063,793.891 C513.145,794.932 513.905,795.916 513.186,798.469 C507.302,819.38 501.607,840.345 495.854,861.294 C495.564,861.346 495.273,861.398 494.983,861.451" fill="#FEFEFE"/>
    <path d="M430.443,859.808 C424.91,839.554 419.521,819.686 414.016,799.851 C413.324,797.358 413.77,795.978 416.142,794.744 C421.295,792.063 426.346,789.171 431.328,786.181 C433.62,784.805 434.37,785.27 435.595,787.677 C439.693,795.725 440.333,803.771 438.557,812.683 C435.798,826.526 434.161,840.593 432.047,854.565 C431.802,856.187 431.983,857.919 430.443,859.808" fill="#FEFEFE"/>
    <path d="M732.987,502.783 C730.557,503.206 730.894,501.631 731.227,500.055 C733.935,487.206 735.828,474.228 737.433,461.204 C738.307,454.111 739.031,446.998 738.946,439.844 C738.916,437.352 739.506,436.39 741.982,437.613 C742.272,437.756 742.628,437.758 742.948,437.847 C755.399,441.31 755.885,442.101 751.816,454.063 C747,468.222 742.929,482.605 740.301,497.306 C739.42,502.234 736.572,502.368 732.987,502.783" fill="#FEF8EA"/>
    <path d="M479.153,733.084 C474.548,736.716 470.596,739.717 466.787,742.891 C465.236,744.184 464.149,744.239 462.572,742.905 C458.803,739.714 454.871,736.714 450.31,733.084 C460.14,733.084 469.19,733.084 479.153,733.084" fill="#FEF4E1"/>
    <path d="M258.868,79.706 C258.525,79.381 258.182,79.056 257.839,78.73 C259.669,77.33 261.906,77.094 264.041,76.564 C262.959,78.668 260.795,78.991 258.868,79.706" fill="#E2D9D1"/>
    <path d="M858.923,836.837 C859.253,836.517 859.583,836.196 859.913,835.875 C861.406,836.595 862.757,837.44 862.967,839.303 C861.417,838.812 860.003,838.099 858.923,836.837" fill="#E8DDD2"/>
    <path d="M1263.81,867.818 C1264.34,866.056 1265.64,866.889 1266.72,866.945 C1266.97,867.907 1267.23,868.87 1267.48,869.833 C1265.63,870.311 1265.09,868.398 1263.81,867.818" fill="#6E4100"/>
    <path d="M913.87,284.719 C913.521,284.406 913.173,284.093 912.825,283.78 C913.965,282.574 915.255,281.695 917.022,281.859 C916.553,283.454 915.243,284.122 913.87,284.719" fill="#ECE4DB"/>
    <path d="M1141.99,464.842 C1149.81,464.721 1157.14,468.058 1164.9,468.172 C1173.31,468.295 1180.58,471.851 1188.05,475.006 C1203.83,481.675 1220.22,486.333 1237.01,489.634 C1237.97,489.822 1238.98,489.736 1239.97,489.778 C1242.09,488.451 1243.83,489.892 1245.56,490.664 C1251.69,493.382 1258.08,495.134 1264.61,496.529 C1271.31,497.96 1277.78,498.592 1283.11,492.995 C1290.67,493.03 1298.1,491.688 1305.55,490.601 C1306.71,490.432 1307.78,490.145 1308.83,490.861 C1321.09,520.187 1328.87,550.746 1332.54,582.227 C1335.36,606.468 1333.6,630.728 1329.72,654.81 C1326.52,654.648 1326.49,651.823 1325.73,649.81 C1321.09,637.567 1314.48,626.664 1303.62,619.039 C1286.25,606.858 1267.77,605.892 1249.51,616.278 C1228.19,628.398 1217.16,647.899 1215.59,671.904 C1214.64,686.52 1221.1,699.573 1232.56,708.783 C1250.34,723.064 1270.56,728.096 1292.96,721.265 C1300.91,718.84 1306.56,713.091 1312.43,707.675 C1314.33,705.915 1314.3,705.884 1316.1,706.984 C1300.58,750.197 1274.03,784.778 1235.28,809.654 C1206.85,827.9 1175.4,838.179 1142.3,843.612 C1099.59,850.624 1056.86,850.521 1014.22,842.804 C967.865,834.413 926.098,816.534 892.43,782.576 C872.638,762.614 857.721,739.376 847.73,713.042 C849.568,711.636 849.647,711.511 851.77,712.871 C861.653,719.202 872.624,722.194 884.107,723.853 C894.915,725.414 905.361,723.862 914.314,717.951 C929.157,708.15 940.198,695.135 943.903,677.014 C944.993,671.678 944.773,666.455 943.617,661.186 C940.128,645.283 932.983,631.357 920.429,620.813 C903.446,606.55 880.201,605.178 859.772,618.948 C849.035,626.186 841.07,635.856 835.994,647.834 C835.348,649.358 834.946,651.063 833.678,652.211 C831.774,653.935 831.64,652.062 831.211,650.879 C820.389,572.423 837.897,500.584 884.112,436.586 C917.488,390.367 964.327,363.253 1019.13,349.205 C1023.63,348.052 1023.24,351.008 1023.78,353.325 C1030.61,382.306 1043.23,408.47 1062.35,431.304 C1079.38,451.651 1100.05,466.298 1127.01,470.436 C1136.49,471.892 1139.2,470.975 1141.99,464.842" fill="#FEF8EA"/>
    <path d="M1156.95,932.59 C1161.71,948.694 1167.72,963.28 1173.1,978.09 C1175.58,984.921 1175.08,992.835 1175.93,1000.259 C1176.52,1005.38 1176.93,1010.52 1177.74,1015.6 C1178.3,1019.14 1177.5,1021.38 1174.21,1023.37 C1156.43,1034.17 1138.83,1045.27 1121.09,1056.16 C1105.26,1065.88 1101.09,1083.39 1110.93,1099.27 C1123.64,1119.79 1136.32,1140.32 1148.99,1160.87 C1149.65,1161.94 1151.16,1163 1150.38,1164.35 C1149.64,1165.63 1147.95,1165 1146.7,1164.99 C1131.3,1164.85 1116.13,1163.41 1101.93,1156.75 C1096.43,1154.17 1091.68,1150.67 1087.88,1145.82 C1084.53,1141.55 1078.49,1141.07 1075.31,1145.11 C1066.8,1155.96 1054.86,1160.21 1042.1,1162.62 C1021.96,1166.42 1001.69,1165.45 981.449,1163.17 C977.982,1162.78 974.539,1162.02 971.067,1161.87 C967.486,1161.72 966.473,1160.17 967,1156.79 C968.869,1144.81 970.783,1132.83 972.362,1120.81 C975.021,1100.54 977.521,1080.26 979.931,1059.96 C982.262,1040.33 984.454,1020.67 986.595,1001.01 C988.448,983.992 990.141,966.954 991.911,949.925 C992.856,940.832 993.797,931.738 994.776,922.649 C995.55,915.459 993.26,911.302 988.146,910.735 C983.029,910.168 979.568,912.927 978.978,918.279 C977.63,930.502 976.223,942.722 975.115,954.968 C972.132,987.919 968.166,1020.64 960.201,1052.91 C949.452,1096.46 940.018,1140.33 930.215,1184.11 C929.336,1188.04 928.193,1188.85 924.321,1187.78 C911.349,1184.18 898.297,1180.87 885.214,1177.7 C881.813,1176.88 881.225,1175.63 882.158,1172.33 C908.318,1079.89 934.368,987.42 960.48,894.966 C964.125,882.058 968.999,869.741 978.513,859.801 C983.086,855.023 987.95,852.193 994.876,855.107 C998.194,856.504 1001.92,857.183 1005.53,857.553 C1008.93,857.902 1009.12,859.551 1008.68,862.235 C1006.95,872.59 1008.76,882.484 1013.28,891.826 C1014.5,894.355 1014.29,895.356 1011.95,896.861 C998.571,905.474 997.881,905.472 1002.36,923.037 C1004.69,932.146 1009.03,940.473 1015.86,947.171 C1017.88,949.162 1018.19,950.79 1016.81,953.228 C1014.68,956.99 1012.79,960.896 1010.89,964.782 C1007.83,971.018 1009.5,975.348 1015.96,977.705 C1026.11,981.409 1036.27,985.097 1046.5,988.582 C1049.46,989.589 1051.02,991.145 1051.99,994.198 C1058.54,1014.62 1065.33,1034.97 1072.03,1055.35 C1073.15,1058.76 1074.51,1061.86 1078.44,1062.99 C1083.02,1064.31 1086.77,1061.94 1088.72,1056.13 C1095.46,1035.93 1102.27,1015.76 1108.81,995.493 C1109.96,991.936 1111.74,989.981 1115.25,988.802 C1125.66,985.307 1135.97,981.535 1146.3,977.815 C1153.35,975.276 1155.03,970.599 1151.19,964.195 C1148.71,960.056 1144.35,956.13 1144.03,951.866 C1143.7,947.559 1149.76,944.802 1152.06,940.625 C1153.41,938.165 1154.97,935.817 1156.95,932.59" fill="#4576AD"/>
    <path d="M1121.74,1083.16 C1121.88,1077.22 1123.92,1073.38 1128.05,1070.82 C1150.39,1056.95 1172.81,1043.21 1195.06,1029.19 C1198.66,1026.92 1199.5,1028.96 1200.96,1031.32 C1230.64,1079.31 1260.34,1127.28 1290.04,1175.25 C1294.5,1182.47 1298.87,1189.76 1303.5,1196.87 C1305.1,1199.31 1304.6,1200.42 1302.27,1201.85 C1280.01,1215.53 1257.84,1229.36 1235.56,1243.01 C1227.8,1247.77 1220.75,1246.03 1215.9,1238.21 C1185.27,1188.86 1154.71,1139.47 1124.13,1090.09 C1122.61,1087.63 1121.5,1085.06 1121.74,1083.16" fill="#BFBFBF"/>
    <path d="M1316.1,706.984 C1312.2,708.299 1310.07,711.846 1307.12,714.322 C1296.3,723.4 1284.11,726.816 1270.13,725.121 C1258.93,723.765 1248.19,721.227 1238.63,715.103 C1223.11,705.16 1214.29,690.735 1214.25,672.413 C1214.22,657.293 1220.23,643.613 1229.63,631.621 C1240.18,618.17 1253.81,609.759 1270.88,608.192 C1283.15,607.065 1294.57,610.614 1304.58,618.026 C1315.5,626.114 1322.39,637.085 1327.04,649.655 C1327.71,651.454 1327.65,653.709 1329.72,654.809 C1326.91,672.653 1322.82,690.161 1316.1,706.984" fill="#FFD5BA"/>
    <path d="M831.211,650.879 C833.143,653.292 833.391,651 833.811,649.861 C837.567,639.674 843.603,631.056 851.558,623.718 C862.231,613.872 874.846,607.935 889.3,608.062 C909.594,608.239 924.488,618.606 934.827,635.67 C941.173,646.143 945.773,657.361 945.875,669.827 C945.985,683.101 940.269,694.316 931.926,704.135 C923.649,713.877 914.218,722.312 900.964,724.619 C883.47,727.663 867.478,723.112 852.277,714.689 C850.899,713.925 849.906,711.72 847.731,713.043 C839.363,693.081 834.285,672.246 831.211,650.879" fill="#FFD5BA"/>
    <path d="M1457.53,970.696 C1461.81,977.549 1466.12,984.388 1470.38,991.258 C1483.45,1012.33 1496.49,1033.41 1509.54,1054.48 C1515.35,1063.87 1513.74,1070.85 1504.29,1076.73 C1482.81,1090.07 1461.25,1103.29 1439.84,1116.75 C1436.81,1118.65 1435.58,1118.14 1433.85,1115.27 C1424.61,1100.05 1415.23,1084.93 1405.78,1069.84 C1404.4,1067.65 1403.99,1065.98 1405.31,1063.54 C1409.25,1056.25 1411.23,1048.37 1411.01,1040.06 C1410.93,1037.37 1411.78,1036.33 1414.51,1035.86 C1445.07,1030.62 1463.75,1002.46 1456.7,972.445 C1456.6,972.008 1456.53,971.564 1456.44,971.123 C1456.8,970.98 1457.17,970.838 1457.53,970.696" fill="#BFBFBF"/>
    <path d="M1080.95,1315.67 C1071.12,1316.08 1061.33,1315.08 1051.53,1314.93 C1048.13,1314.88 1047.71,1313.39 1047.97,1310.64 C1049.43,1294.92 1050.81,1279.19 1052.26,1263.46 C1053.79,1246.92 1055.39,1230.38 1056.91,1213.84 C1058.01,1201.76 1059.04,1189.67 1060.05,1177.58 C1060.24,1175.36 1061.16,1173.89 1063.34,1173.12 C1069.04,1171.1 1074.21,1168.05 1078.87,1164.24 C1080.66,1162.77 1081.93,1162.76 1083.59,1164.19 C1088.2,1168.13 1093.53,1170.88 1099.11,1173.1 C1101.31,1173.98 1102.01,1175.23 1102.21,1177.5 C1103.71,1194.55 1105.37,1211.58 1106.97,1228.62 C1109.21,1252.61 1111.44,1276.6 1113.67,1300.58 C1114.02,1304.39 1114.29,1308.21 1114.75,1312 C1115.1,1314.86 1113.32,1314.79 1111.37,1314.87 C1101.23,1315.28 1091.11,1316.05 1080.95,1315.67" fill="#4576AD"/>
    <path d="M1404.69,1137.33 C1404.6,1138.9 1403.31,1139.2 1402.38,1139.77 C1381.18,1152.93 1359.95,1166.03 1338.79,1179.25 C1336.65,1180.59 1335.81,1180.03 1334.63,1178.11 C1319.27,1153.19 1303.87,1128.3 1288.38,1103.47 C1287.06,1101.35 1287.42,1100.42 1289.39,1099.21 C1303.56,1090.52 1317.71,1081.78 1331.79,1072.94 C1333.77,1071.69 1334.95,1072.19 1336.54,1073.5 C1345.86,1081.16 1356.59,1085.17 1368.68,1085.23 C1371.48,1085.24 1373.2,1086.12 1374.68,1088.55 C1384.11,1104.03 1393.68,1119.42 1403.2,1134.84 C1403.73,1135.68 1404.22,1136.54 1404.69,1137.33" fill="#BFBFBF"/>
    <path d="M1099.4,1575.13 C1090.84,1571.65 1090.06,1570.3 1089.81,1561.16 C1088.43,1509.91 1089.1,1458.65 1088.71,1407.4 C1088.68,1404.6 1089.42,1403.97 1091.94,1403.97 C1105.58,1403.99 1119.22,1404.13 1132.83,1402.85 C1135.76,1402.57 1136.79,1403.24 1136.46,1406.68 C1134.73,1424.87 1133.39,1443.09 1131.86,1461.3 C1129.99,1483.48 1128.06,1505.66 1126.18,1527.84 C1125.47,1536.11 1124.82,1544.39 1124.13,1552.67 C1124.01,1554.14 1124.04,1555.35 1121.87,1555.8 C1108.2,1558.63 1105.02,1561.48 1099.4,1575.13" fill="#9D9D9D"/>
    <path d="M1072.83,1486.71 C1072.83,1512.35 1072.83,1537.98 1072.83,1563.62 C1072.83,1568.9 1069.69,1573.05 1064.71,1574.75 C1062.86,1575.38 1062.44,1574.65 1062.01,1573.09 C1059.04,1562.32 1051.54,1556.93 1040.78,1555.79 C1038.35,1555.54 1038.24,1554.25 1038.1,1552.51 C1036.39,1530.99 1034.72,1509.45 1032.94,1487.93 C1030.77,1461.77 1028.56,1435.62 1026.25,1409.47 C1025.64,1402.68 1025.55,1402.41 1032.05,1403.03 C1043.67,1404.13 1055.32,1404.04 1066.95,1403.89 C1071.59,1403.82 1072.95,1405.25 1072.92,1409.81 C1072.74,1435.44 1072.83,1461.08 1072.83,1486.71" fill="#9D9D9D"/>
    <path d="M1029.11,1313.6 C1014.16,1312.18 999.457,1310.7 984.862,1308.3 C982.302,1307.88 981.737,1306.69 982.261,1304.17 C990.451,1264.83 998.598,1225.49 1006.61,1186.12 C1007.29,1182.75 1008.43,1181.49 1012.05,1181.38 C1021.67,1181.12 1031.34,1180.94 1040.83,1179.15 C1043.54,1178.64 1044.05,1179.54 1043.83,1181.91 C1041.62,1204.89 1039.42,1227.88 1037.28,1250.86 C1035.8,1266.74 1034.42,1282.63 1033,1298.51 C1032.63,1302.65 1032.23,1306.79 1031.97,1310.93 C1031.84,1313.01 1031.1,1314.11 1029.11,1313.6" fill="#4576AD"/>
    <path d="M1119.02,1183.24 C1118.31,1179.79 1119.03,1178.63 1123.1,1179.38 C1132.26,1181.08 1141.62,1181.24 1150.92,1181.41 C1154.09,1181.46 1155.28,1182.6 1155.88,1185.53 C1163.82,1224.44 1171.75,1263.36 1179.96,1302.22 C1181.02,1307.26 1179.32,1308.36 1174.88,1308.83 C1161.66,1310.21 1148.47,1311.87 1135.29,1313.54 C1132.29,1313.92 1130.9,1313.47 1130.61,1309.91 C1129.21,1292.68 1127.49,1275.47 1125.87,1258.26 C1123.98,1238.06 1122.05,1217.87 1120.17,1197.68 C1119.73,1192.87 1119.4,1188.06 1119.02,1183.24" fill="#4576AD"/>
    <path d="M1258.27,918.836 C1275.07,946.95 1290.83,973.738 1297.43,1004.69 C1298.89,1011.52 1299.45,1018.42 1298,1025.46 C1295.02,1040 1283.35,1045.15 1271.28,1036.71 C1259.86,1028.73 1252.14,1017.38 1244.75,1005.88 C1238.27,995.797 1232.59,985.246 1227.18,974.549 C1226.1,972.418 1225.53,971.03 1228.27,969.35 C1244.65,959.272 1252.74,943.65 1256.89,925.513 C1257.29,923.77 1257.62,922.012 1258.27,918.836" fill="#4576AD"/>
    <path d="M1198.56,890.621 C1191.93,891.097 1185.35,892.472 1178.65,891.83 C1175.85,891.56 1172.66,891.559 1171.42,888.43 C1170.31,885.601 1172.28,883.277 1173.92,881.264 C1187.75,864.31 1202.28,861.928 1218.59,874.04 C1232.73,884.538 1243.11,897.93 1241.8,916.839 C1240.88,930.184 1235.48,941.964 1225.7,951.334 C1217.37,959.317 1207.31,960.237 1198.35,954.551 C1195.45,952.711 1195.53,951.29 1198.16,949.551 C1201.9,947.079 1205.66,944.628 1209.44,942.217 C1213.67,939.524 1215.26,935.636 1213.69,931.655 C1212.2,927.856 1208.15,926.109 1203.25,927.271 C1199.46,928.168 1195.65,928.524 1191.91,927.344 C1186.51,925.634 1185.17,920.767 1188.81,916.4 C1192.53,911.928 1197.37,908.634 1202.77,907.122 C1209.68,905.186 1211.67,899.766 1210.73,896.291 C1209.46,891.614 1206.06,890.004 1198.56,890.621" fill="#FEF8EA"/>
    <path d="M1116.06,1330.93 C1123.86,1330.32 1131.66,1329.77 1139.45,1329.07 C1141.6,1328.88 1142.84,1328.76 1142.57,1331.72 C1140.98,1348.96 1139.51,1366.21 1138.2,1383.48 C1138,1386.1 1137.16,1386.75 1134.7,1386.9 C1120.74,1387.75 1106.77,1388.09 1092.79,1388.29 C1089.17,1388.34 1088.37,1387.12 1088.4,1383.73 C1088.56,1367.73 1088.58,1351.73 1088.38,1335.74 C1088.34,1332.32 1089.57,1331.51 1092.6,1331.55 C1100.41,1331.66 1108.23,1331.59 1116.05,1331.59 C1116.05,1331.37 1116.06,1331.15 1116.06,1330.93" fill="#FEF8EA"/>
    <path d="M1072.42,1360.04 C1072.42,1368.19 1072.34,1376.34 1072.47,1384.49 C1072.52,1387.21 1071.78,1388.29 1068.86,1388.26 C1055.06,1388.13 1041.28,1387.71 1027.51,1386.89 C1025.15,1386.75 1024.37,1385.87 1024.2,1383.67 C1022.84,1366.45 1021.44,1349.23 1019.96,1332.02 C1019.71,1329.14 1020.81,1328.85 1023.39,1329.1 C1038.28,1330.54 1053.22,1331.39 1068.18,1331.48 C1071.82,1331.51 1072.59,1332.74 1072.5,1336.08 C1072.28,1344.06 1072.42,1352.05 1072.42,1360.04" fill="#FEF8EA"/>
    <path d="M990.478,1184.73 C987.378,1200.01 984.069,1216.45 980.699,1232.87 C976.129,1255.15 971.472,1277.41 966.956,1299.7 C966.246,1303.2 965.581,1305.48 961.015,1303.94 C955.848,1302.19 950.433,1301.07 945.052,1300.09 C941.316,1299.41 940.641,1298.07 941.713,1294.37 C951.01,1262.31 960.081,1230.19 969.233,1198.09 C970.69,1192.98 972.216,1187.88 973.697,1182.78 C973.882,1182.14 973.774,1181.27 974.169,1180.87 C978.662,1176.27 983.702,1180.92 988.486,1180.16 C990.411,1179.86 991.34,1181.55 990.478,1184.73" fill="#4576AD"/>
    <path d="M900.411,1243.84 C901.608,1235.57 904.891,1228.44 906.866,1220.95 C908.649,1214.19 904.713,1209.11 898.409,1209.76 C896.665,1209.94 895.116,1210.56 893.993,1211.82 C884.796,1222.1 872.205,1224.51 859.546,1226.73 C854.295,1227.65 848.969,1228.11 843.648,1227.69 C839.989,1227.4 835.981,1226.84 834.522,1222.84 C833.191,1219.19 835.87,1216.45 838.24,1214.19 C847.679,1205.2 858.692,1198.36 869.768,1191.62 C871.379,1190.64 872.841,1190.97 874.514,1191.41 C889.766,1195.38 905.042,1199.27 920.303,1203.22 C922.121,1203.69 924.166,1203.66 924.03,1206.72 C923.477,1219.13 911.53,1240.63 900.411,1243.84" fill="#FEF8EA"/>
    <path d="M1253.01,1042.72 C1255.98,1045.12 1258.84,1047.67 1261.95,1049.89 C1287.04,1067.83 1310.44,1049.58 1314.01,1027.22 C1316.08,1014.19 1313.64,1001.73 1310.24,989.304 C1309.81,987.724 1309.36,986.148 1308.88,984.391 C1310.4,984.23 1310.61,985.313 1311.05,986.025 C1318.07,997.337 1325.05,1008.67 1332.1,1019.96 C1333.16,1021.66 1333.83,1022.62 1331.61,1024.3 C1321.48,1031.98 1318.37,1042.32 1322.84,1054.37 C1324.21,1058.08 1323.25,1059.52 1320.23,1061.34 C1307.27,1069.17 1294.44,1077.22 1281.57,1085.2 C1279.86,1086.26 1278.51,1087.59 1276.83,1084.78 C1268.6,1071.09 1260.18,1057.53 1251.82,1043.92 C1251.49,1042.8 1252,1042.52 1253.01,1042.72" fill="#BFBFBF"/>
    <path d="M1445.19,952.479 C1444.56,951.941 1443.98,951.326 1443.3,950.876 C1436.98,946.745 1432.05,942.357 1429.68,934.12 C1426.63,923.513 1413.79,918.414 1403,921.195 C1391.78,924.088 1384.31,934.245 1385.02,945.638 C1385.22,948.763 1379.33,958.039 1377.25,957.135 C1374.17,955.794 1369.89,957.465 1367.87,953.656 C1367.04,952.078 1365.76,950.727 1364.05,950.845 C1361.01,951.055 1358.29,948.198 1356.88,948.254 C1351.11,948.482 1347.81,941.999 1342.06,943.568 C1340.44,944.009 1340.09,942.992 1339.51,941.95 C1338.27,939.727 1340.31,939.418 1341.41,938.728 C1352.56,931.77 1363.74,924.862 1374.92,917.945 C1382.98,912.955 1391,907.89 1399.12,903.008 C1406.3,898.699 1413.92,900.281 1418.29,907.199 C1427.34,921.552 1436.17,936.043 1445.08,950.485 C1445.4,950.997 1445.58,951.588 1445.83,952.143 C1445.62,952.255 1445.41,952.367 1445.19,952.479" fill="#BFBFBF"/>
    <path d="M1401.77,1000.83 C1400.32,1000.61 1398.55,999.068 1397.52,1000.195 C1394,1004.07 1390.98,1000.92 1387.72,999.997 C1380.89,998.051 1374.25,998.351 1367.96,1002.03 C1366.47,1002.9 1365.07,1004.7 1363.07,1003.18 C1360.96,1001.57 1359.84,999.372 1360.02,996.675 C1360.34,992.182 1364.4,989.18 1369.27,989.769 C1377.43,990.755 1379.16,989.743 1381.59,982.022 C1384.53,972.709 1390.06,965.592 1398.61,960.752 C1404.02,957.691 1405.16,954.146 1402.37,948.692 C1400.45,944.923 1400.49,941.625 1403.55,938.704 C1405.94,936.431 1408.91,936.016 1411.91,937.355 C1415.99,939.176 1416.4,942.698 1415.95,946.616 C1415.16,953.6 1416.32,955.536 1422.97,957.65 C1444.77,964.583 1446.13,990.796 1436.82,1002.75 C1435.65,1001.44 1436.19,999.943 1436.34,998.482 C1437.14,990.989 1434.51,985.02 1427.97,981.215 C1421.46,977.424 1415.22,978.662 1409.48,983.203 C1407.01,984.096 1405.98,986.088 1405.5,988.487 C1403.41,992.342 1405.27,996.926 1403.22,1000.78 C1402.75,1001.22 1402.27,1001.23 1401.77,1000.83" fill="#C6986A"/>
    <path d="M1372.4,1069.21 C1357.78,1069.31 1347.59,1064.33 1340.3,1053.82 C1339.09,1052.08 1338.19,1050.03 1337.54,1048 C1335.24,1040.75 1339.85,1035.53 1347.22,1037.01 C1351.15,1037.8 1354.82,1039.38 1358.43,1041.1 C1365.8,1044.62 1370.88,1041.43 1371.04,1033.25 C1371.11,1029.41 1371.52,1025.61 1372.63,1021.94 C1375.09,1013.82 1381.34,1012.23 1387.24,1018.45 C1394.71,1026.34 1396.06,1036.06 1394.5,1046.35 C1393.9,1050.3 1392.26,1053.96 1390.48,1057.57 C1386.35,1065.92 1379.99,1070.21 1372.4,1069.21" fill="#FF7164"/>
    <path d="M1177.41,1206.79 C1185.43,1219.71 1193.06,1232 1200.69,1244.28 C1202.98,1247.95 1205.09,1251.78 1208.6,1254.49 C1209.78,1255.4 1210.07,1256.69 1210.42,1257.94 C1213.96,1270.24 1217.36,1282.59 1221.01,1294.86 C1221.9,1297.88 1221.71,1299.31 1218.18,1299.97 C1211.98,1301.12 1205.87,1302.76 1199.74,1304.31 C1197.76,1304.82 1196.54,1304.55 1196.09,1302.34 C1189.73,1270.91 1183.34,1239.49 1176.98,1208.06 C1176.95,1207.92 1177.08,1207.75 1177.41,1206.79" fill="#4576AD"/>
    <path d="M788.03,632.942 C787.766,626.078 788.434,619.309 791.281,612.977 C794.513,605.789 800.084,602.631 807.957,602.769 C810.979,602.821 811.952,603.826 811.924,606.837 C811.811,618.804 812.585,630.732 813.938,642.626 C814.877,650.876 815.945,659.106 817.73,667.22 C818.455,670.515 818.267,671.957 814.025,671.276 C798.131,668.727 789.389,658.779 788.058,640.914 C787.861,638.271 788.03,635.6 788.03,632.942" fill="#FEF8EA"/>
    <path d="M1102.03,905.941 C1102.26,897.563 1102.24,897.661 1110.47,899.324 C1121.6,901.574 1132.34,904.809 1142.29,910.464 C1145.18,912.104 1146.16,913.7 1145.18,917.177 C1141.17,931.397 1132.8,941.522 1118.93,947.058 C1115.65,948.367 1114.27,947.755 1113.16,944.407 C1109.97,934.797 1106.54,925.265 1103.05,915.755 C1101.87,912.519 1101.84,909.267 1102.03,905.941" fill="#FF7164"/>
    <path d="M1060.06,906.482 C1061.54,911.039 1059.65,915.153 1058.12,919.372 C1055.01,927.955 1051.92,936.546 1049.07,945.217 C1048.17,947.952 1047.03,948.488 1044.44,947.467 C1030.07,941.815 1021.12,931.442 1017.15,916.62 C1016.53,914.282 1016.95,912.519 1019.23,911.155 C1031.13,904.04 1044.16,900.443 1057.72,898.31 C1059.61,898.011 1060.08,898.779 1060.07,900.399 C1060.05,902.392 1060.06,904.386 1060.06,906.482" fill="#FF7164"/>
    <path d="M1372.39,636.341 C1372.18,641.667 1371.58,647.903 1369.21,653.874 C1365.07,664.34 1357.24,669.757 1346.26,671.198 C1343.75,671.529 1343.1,671.243 1343.65,668.494 C1347.23,650.717 1348.94,632.718 1349.61,614.611 C1349.68,612.62 1349.74,610.628 1349.74,608.636 C1349.77,602.381 1350.06,602.11 1356.15,603.008 C1362.25,603.908 1366.44,607.302 1368.9,612.901 C1372.05,620.071 1372.46,627.672 1372.39,636.341" fill="#FEF8EA"/>
    <path d="M1094.68,1591.07 C1098.06,1592.53 1099.96,1593.42 1101.92,1594.17 C1106.04,1595.76 1110.42,1597.21 1114.13,1593.78 C1117.82,1590.37 1117.57,1585.56 1116.48,1581.19 C1115.62,1577.78 1116.16,1575.39 1118.89,1573.33 C1120.65,1572.01 1122.21,1571.92 1123.55,1573.84 C1124.78,1575.6 1126.33,1577.26 1127.09,1579.21 C1129.71,1585.89 1134.62,1590.5 1140.35,1594.3 C1144.68,1597.17 1146.7,1601.55 1148.4,1605.97 C1150.25,1610.79 1144.5,1617.16 1138.37,1617.7 C1132.83,1618.18 1127.89,1616.22 1123.16,1613.76 C1116.1,1610.09 1109.18,1606.17 1102.67,1601.57 C1099.32,1599.21 1097.16,1595.98 1094.68,1591.07" fill="#6E4E25"/>
    <path d="M1068.15,1590.88 C1063.1,1600.59 1054.98,1605.39 1046.63,1609.77 C1041.22,1612.6 1036,1615.9 1029.89,1617.27 C1025.76,1618.2 1022,1617.75 1018.48,1615.43 C1014,1612.47 1012.73,1608.14 1015.16,1603.35 C1017.11,1599.49 1019.41,1595.88 1023.27,1593.51 C1029.57,1589.65 1033.2,1583.56 1036.76,1577.34 C1037.92,1575.32 1038.31,1571.57 1041.85,1572.32 C1045.64,1573.11 1046.25,1576.29 1045.99,1579.76 C1045.82,1582.07 1045.94,1584.41 1045.95,1586.73 C1045.98,1593.74 1051.36,1597.53 1057.99,1595.12 C1061.09,1593.99 1064.09,1592.58 1068.15,1590.88" fill="#6E4E25"/>
    <path d="M1402.95,1000.77 C1402.93,996.347 1401.28,991.685 1404.86,987.789 C1410.4,988.328 1410.95,987.639 1409.02,982.599 C1415.74,974.451 1430.21,976.817 1435.72,986.879 C1438.56,992.053 1438.15,997.345 1436.82,1002.75 C1435.45,1004.69 1434.09,1006.63 1432.72,1008.57 C1426.68,1014.76 1419.58,1015.75 1411.88,1012.41 C1406.88,1010.24 1403.69,1006.36 1402.95,1000.77" fill="#FEFEFE"/>
    <path d="M1081.77,944.127 C1084.16,957.843 1086.55,971.56 1088.94,985.277 C1089.14,986.418 1088.98,987.862 1089.62,988.647 C1093.75,993.7 1091.06,998.459 1089.36,1003.37 C1086.45,1011.8 1083.7,1020.28 1080.57,1029.67 C1076.65,1017.83 1073.05,1007 1069.47,996.157 C1069.27,995.553 1068.89,994.62 1069.16,994.306 C1076.64,985.371 1074.74,973.863 1077.51,963.653 C1079.24,957.285 1079.96,950.644 1081.14,944.125 C1081.35,944.125 1081.56,944.126 1081.77,944.127" fill="#FEFEFE"/>
    <path d="M1024.09,868.632 C1024.21,867.441 1024.47,866.119 1024.46,864.799 C1024.43,861.559 1025.55,860.632 1028.97,861.37 C1033.81,862.414 1039.9,861.163 1043.44,863.702 C1046.75,866.071 1047.33,872.153 1049.3,876.518 C1052.1,882.749 1052.16,882.672 1045.39,884.311 C1041.36,885.286 1037.32,886.278 1033.37,887.544 C1030.63,888.423 1029.17,887.684 1027.83,885.164 C1025.08,879.993 1024.68,874.383 1024.09,868.632" fill="#FEFEFE"/>
    <path d="M1337.08,949.983 C1338.25,949.611 1338.72,950.155 1339.19,950.955 C1339.59,951.658 1340.14,952.691 1340.75,952.796 C1345.23,953.559 1349.15,955.463 1353.21,957.433 C1355.13,958.364 1357.87,957.508 1359.37,960.222 C1359.96,961.295 1361.58,961.774 1362.95,961.593 C1367.53,960.989 1369.15,965.305 1369.6,967.614 C1370.06,969.99 1368.49,973.902 1363.74,973.92 C1359.74,973.934 1356.07,976.003 1352.97,978.6 C1351.04,980.212 1350.05,979.889 1348.81,977.822 C1344.19,970.15 1339.43,962.562 1334.71,954.955 C1332.78,951.843 1334.07,950.416 1337.08,949.983" fill="#BFBFBF"/>
    <path d="M1081.31,864.322 C1086.62,864.322 1091.93,864.439 1097.24,864.275 C1100.09,864.186 1101.58,864.107 1100.1,867.853 C1095.81,878.732 1095.97,878.797 1084.17,878.797 C1081.51,878.797 1078.84,878.951 1076.19,878.753 C1073.64,878.562 1070.57,880.003 1068.63,877.758 C1065.7,874.363 1063.71,870.25 1062.31,865.995 C1061.57,863.776 1063.78,864.385 1064.87,864.371 C1070.35,864.3 1075.82,864.338 1081.3,864.338 C1081.3,864.333 1081.3,864.327 1081.31,864.322" fill="#FEF8EA"/>
    <path d="M1137.69,863.518 C1136.48,871.006 1134.52,878.179 1129.68,884.211 C1128.9,885.192 1128.28,886.912 1126.78,886.607 C1121.9,885.62 1117.06,884.437 1112.25,883.186 C1110.13,882.635 1111.71,881.336 1112.04,880.495 C1113.34,877.094 1115.39,873.854 1116.03,870.347 C1117.14,864.273 1120.3,861.769 1126.34,861.946 C1129.3,862.033 1132.29,861.381 1135.24,860.894 C1137.59,860.505 1138.33,861.328 1137.69,863.518" fill="#FEFDFD"/>
    <path d="M1061.04,963.894 C1059.91,976.526 1059.92,976.51 1048.13,972.202 C1042.99,970.319 1037.76,968.63 1032.67,966.601 C1031.28,966.046 1028.14,966.48 1029.72,962.934 C1031.05,959.971 1032.45,959.35 1035.37,960.969 C1039.76,963.407 1044.72,964.37 1049.57,965.507 C1053.77,966.492 1057.53,965.89 1060.06,961.882 C1061.97,961.788 1061.4,962.89 1061.04,963.894" fill="#FF7063"/>
    <path d="M1100.94,960.896 C1104.5,966.361 1109.38,966.789 1114.99,964.987 C1118.92,963.726 1123.02,962.845 1126.74,961.145 C1130.1,959.614 1130.9,961.837 1131.88,963.805 C1133.45,966.967 1130.26,966.362 1129,966.846 C1122.06,969.516 1115.01,971.91 1108.05,974.554 C1104.92,975.745 1102.88,976.194 1102.76,971.598 C1102.66,968.017 1101.58,964.463 1100.94,960.896" fill="#FF7063"/>
    <path d="M1402.95,1000.77 C1407.64,1012.27 1419.81,1017.55 1432.72,1008.57 C1426.91,1016.16 1418.71,1019.2 1409.66,1020.57 C1408.11,1020.8 1407.32,1019.82 1406.65,1018.52 C1405.58,1016.46 1404.44,1014.43 1403.13,1012.52 C1401.88,1010.7 1400.82,1009.29 1402.55,1006.9 C1403.82,1005.13 1403.07,1002.74 1401.77,1000.83 C1402.16,1000.81 1402.56,1000.79 1402.95,1000.77" fill="#C6986A"/>
    <path d="M1081.09,894.944 C1085.46,894.066 1087.51,895.168 1086.15,899.726 C1085.83,900.789 1085.95,902.042 1086.11,903.173 C1086.73,907.523 1084.92,909.001 1080.59,908.787 C1077.51,908.635 1075.89,907.947 1076.2,904.592 C1076.33,903.125 1076.22,901.616 1076.04,900.146 C1075.57,896.045 1076.53,893.48 1081.09,894.944" fill="#FC7061"/>
    <path d="M1150.76,879.343 C1150.76,884.246 1150.78,888.486 1150.75,892.726 C1150.74,893.831 1150.97,895.669 1149.65,895.578 C1147.96,895.463 1146.25,894.467 1144.73,893.554 C1143.37,892.737 1144.19,891.618 1144.77,890.57 C1146.66,887.111 1148.49,883.614 1150.76,879.343" fill="#4B6E9A"/>
    <path d="M1157.24,857.078 C1156.15,859.628 1155.42,861.336 1154.69,863.043 C1154.13,860.818 1152.8,858.374 1157.24,857.078" fill="#4B6D97"/>
    <path d="M1253.01,1042.72 C1252.61,1043.12 1252.22,1043.52 1251.82,1043.92 C1250.64,1042.37 1249.45,1040.82 1247.82,1038.7 C1250.75,1039.26 1251.8,1041.09 1253.01,1042.72" fill="#B1AAA1"/>
    <path d="M1061.04,963.894 C1060.71,963.223 1060.39,962.552 1060.06,961.882 C1060.44,960.815 1060.82,959.748 1061.43,958.027 C1062.34,960.514 1062.12,962.228 1061.04,963.894" fill="#DA634A"/>
    <path d="M463.519,635.41 C433.725,634.57 407.249,625.138 387.036,601.454 C384.582,598.579 383.149,595.533 385.321,591.94 C386.951,589.245 389.519,588.331 392.622,588.716 C395.002,589.011 396.428,590.599 397.807,592.297 C427.381,628.733 491.347,630.912 525.215,598.187 C527.245,596.226 529.043,594.018 530.874,591.862 C534.399,587.712 538.179,586.842 541.636,589.463 C545.086,592.079 545.201,596.592 541.703,600.888 C527.663,618.134 509.262,628.049 487.807,632.803 C479.968,634.54 472.009,635.083 463.519,635.41" fill="#6E4100"/>
    <path d="M361.807,403.697 C372.127,404.058 380.195,409.752 385.915,419.193 C388.608,423.637 390.381,428.473 391.468,433.54 C392.458,438.161 390.002,442.477 385.767,443.817 C381.132,445.284 376.67,443.207 374.831,438.585 C373.914,436.281 373.392,433.817 372.435,431.532 C369.5,424.516 364.807,420.763 359.816,421.247 C353.859,421.824 348.235,427.789 347.04,434.87 C346.708,436.837 346.697,438.868 346.25,440.803 C345.23,445.219 341.529,447.824 336.983,447.33 C332.419,446.834 329.356,444.167 329.174,439.653 C328.436,421.324 341.774,403.81 361.807,403.697" fill="#6E4100"/>
    <path d="M566.575,403.702 C585.91,403.931 599.798,420.722 599.065,439.524 C598.89,444.008 595.32,447.154 590.871,447.355 C586.105,447.571 582.45,444.684 581.917,439.912 C581.297,434.366 580.337,429.058 576.005,424.995 C570.156,419.508 563.172,420.141 558.498,426.65 C556.234,429.804 554.998,433.387 553.951,437.09 C552.384,442.631 548.163,445.228 543.1,443.964 C538.325,442.771 535.636,438.463 536.945,433.16 C540.254,419.755 546.566,408.702 560.973,404.612 C563.184,403.984 565.539,403.863 566.575,403.702" fill="#6E4100"/>
    <path d="M365.637,249.851 C375.05,250.4 382.248,255.004 386.818,263.651 C388.542,266.911 388.001,269.896 384.827,271.882 C381.345,274.06 378.087,272.974 376.369,269.57 C371.343,259.613 360.32,260.033 353.785,267.842 C351.009,271.158 347.838,272.179 344.274,269.401 C341.293,267.078 341.589,263.355 344.778,259.749 C350.218,253.599 356.995,250.179 365.637,249.851" fill="#6E4100"/>
    <path d="M473.54,453.834 C473.491,457.881 472.01,460.137 469.103,461.325 C466.144,462.536 463.398,461.771 461.365,459.496 C457.463,455.13 455.77,449.683 455.171,444.026 C454.851,440.999 456.769,438.764 459.773,437.623 C462.633,436.536 465.6,436.989 466.937,439.372 C469.653,444.211 471.602,449.479 473.54,453.834" fill="#6E4300"/>
    <path d="M1283.11,492.995 C1281.39,497.48 1278.19,499.182 1273.37,498.918 C1261.55,498.273 1250.68,494.39 1239.97,489.778 C1193,461.144 1170.52,417.213 1161.84,364.667 C1161.44,362.214 1161,359.727 1161,357.255 C1160.98,352.595 1164.28,349.202 1168.65,349.001 C1172.77,348.81 1176.45,352.16 1176.92,356.68 C1180.14,387.857 1191.37,415.959 1209.64,441.283 C1221.74,458.057 1236.58,471.566 1256.29,479.03 C1261.78,481.111 1267.46,482.304 1273.26,482.803 C1280.75,483.446 1282.75,485.374 1283.11,492.995" fill="#6E4100"/>
    <path d="M243.035,181.857 C242.616,181.465 242.197,181.073 241.777,180.681 C243.431,179.395 245.267,178.51 247.774,178.655 C246.195,179.723 244.615,180.79 243.035,181.857" fill="#F4F0EE"/>
    <path d="M464.399,1103.77 C473.207,1103.69 480.415,1110.31 480.578,1118.62 C480.74,1126.89 473.593,1133.72 464.73,1133.76 C455.96,1133.81 449.201,1127.54 449.028,1119.21 C448.849,1110.59 455.561,1103.85 464.399,1103.77" fill="#6E4100"/>
    <path d="M449.028,1056.05 C449.082,1047.88 456.054,1041.11 464.48,1041.05 C473.119,1040.98 480.38,1047.82 480.459,1056.1 C480.536,1064.25 473.216,1071.36 464.661,1071.43 C456.142,1071.51 448.972,1064.45 449.028,1056.05" fill="#6E4100"/>
    <path d="M1078.82,782.436 C1066.78,782.811 1053.79,775.912 1043.97,762.796 C1033.75,749.154 1028.92,733.359 1025.98,716.84 C1025.68,715.186 1026.22,713.311 1023.59,712.58 C1019.6,711.474 1017.96,708.341 1019.1,704.421 C1020.28,700.389 1023.54,699.437 1027.45,699.972 C1043.63,702.188 1059.9,702.943 1076.21,702.808 C1093.19,702.668 1110.1,701.566 1126.91,699.097 C1135.15,697.887 1137.56,699.917 1137.44,708.392 C1137.22,723.657 1134.86,738.497 1128.11,752.39 C1119.04,771.079 1104.35,781.384 1078.82,782.436" fill="#6E4100"/>
    <path d="M931.992,607.217 C932.446,598.886 936.023,590.134 943.342,583.186 C945.434,581.2 945.845,580.029 943.96,577.656 C940.347,573.11 938.777,567.667 938.504,561.91 C938.316,557.964 939.772,554.912 944.202,554.649 C948.39,554.399 950.624,556.583 951.009,560.835 C951.202,562.962 951.587,565.143 952.326,567.135 C954.432,572.809 956.734,574.009 962.699,572.959 C980.424,569.84 995.921,579.933 1000.43,597.532 C1001.68,602.4 999.482,606.893 995.089,608.464 C990.451,610.123 985.855,607.887 983.841,602.989 C983.778,602.837 983.757,602.667 983.697,602.513 C979.979,593.014 974.932,589.091 967.516,589.934 C958.655,590.94 951.098,598.234 949.826,607.023 C949.683,608.009 949.572,609.001 949.498,609.994 C948.996,616.738 945.806,620.116 940.193,619.825 C934.847,619.548 931.87,615.606 931.992,607.217" fill="#6E4100"/>
    <path d="M1229.45,609.767 C1229.42,616.064 1226.28,619.744 1220.89,619.827 C1215.59,619.908 1212.11,616.211 1211.95,610.1 C1211.72,601.588 1207.56,595.578 1200.15,591.867 C1190.87,587.225 1182.59,590.527 1178.7,600.138 C1178.33,601.058 1178.1,602.038 1177.72,602.956 C1175.8,607.624 1171.41,609.928 1166.89,608.669 C1162.41,607.422 1159.85,603.239 1160.96,598.036 C1162.37,591.374 1165.68,585.555 1170.63,580.913 C1172.65,579.022 1172.81,577.886 1171.28,575.661 C1168.59,571.754 1167.46,567.19 1167.13,562.493 C1166.8,557.686 1168.86,554.939 1172.75,554.639 C1176.86,554.321 1179.22,556.471 1179.73,561.264 C1179.94,563.262 1180.18,565.21 1180.92,567.095 C1182.52,571.199 1184.72,573.242 1189.86,572.649 C1210.27,570.298 1229.57,588.645 1229.45,609.767" fill="#6E4100"/>
    <path d="M986.964,436.942 C987.032,439.716 985.87,441.679 983.553,442.699 C981.291,443.695 979.066,443.402 977.042,441.752 C964.974,431.913 957.713,433.333 949.423,447.134 C947.598,450.17 944.888,451.164 941.766,449.835 C938.671,448.518 937.22,445.853 938.411,442.5 C941.991,432.42 949.36,426.353 959.58,424.088 C969.61,421.865 978.278,424.769 985.086,432.656 C986.186,433.93 987.107,435.306 986.964,436.942" fill="#6E4100"/>
    <path d="M1089.46,618.295 C1089.33,621.831 1088.28,624.244 1085.58,625.454 C1082.81,626.689 1079.78,626.68 1077.76,624.302 C1075.3,621.415 1073.08,618.21 1071.35,614.84 C1069.99,612.172 1070.63,609.282 1072.99,607.096 C1075.34,604.918 1078.32,604.322 1080.81,606.017 C1085.32,609.085 1087.62,613.933 1089.46,618.295" fill="#6E4100"/>
    <path d="M1096.06,1099.01 C1096.11,1107.77 1089.58,1114.56 1081.21,1114.43 C1072.96,1114.29 1066.02,1107.18 1066.07,1098.9 C1066.11,1090.97 1073.14,1084.11 1081.29,1084.04 C1089.53,1083.98 1096.01,1090.54 1096.06,1099.01" fill="#6E4100"/>
    <path d="M1425.22,967.649 C1426.77,967.578 1428.2,969.326 1428.27,971.951 C1428.35,974.82 1426.73,976.699 1423.74,976.791 C1420.73,976.884 1418.97,975.163 1419,972.217 C1419.03,969.27 1420.83,967.73 1425.22,967.649" fill="#704400"/>
    <path d="M1409.02,982.599 C1412.11,983.653 1412.92,985.833 1411.02,988.3 C1409.05,990.854 1406.73,990.231 1404.86,987.79 C1404.44,984.617 1405.33,982.483 1409.02,982.599" fill="#724705"/>
    <path d="M1069.94,715.889 C1089.58,715.757 1105.19,715.025 1120.71,712.975 C1123.19,712.647 1124.38,713 1124.11,715.931 C1122.91,729.158 1119.92,741.74 1112.69,753.173 C1101,771.652 1069.91,776.673 1054.5,755.125 C1046.27,743.622 1042.07,730.659 1039.2,717.081 C1038.47,713.607 1040.98,714.684 1042.53,714.755 C1052.99,715.241 1063.45,716.113 1069.94,715.889" fill="#FEFEFE"/>
  </g>
</svg>
